<mxfile host="Electron" agent="Mozilla/5.0 (Windows NT 10.0; Win64; x64) AppleWebKit/537.36 (KHTML, like Gecko) draw.io/24.7.17 Chrome/128.0.6613.36 Electron/32.0.1 Safari/537.36" version="24.7.17">
  <diagram name="PÃ¡gina-1" id="uhMQLd2YqhxDlObFfZrp">
    <mxGraphModel dx="1098" dy="838" grid="1" gridSize="10" guides="1" tooltips="1" connect="1" arrows="1" fold="1" page="1" pageScale="1" pageWidth="827" pageHeight="1169" math="0" shadow="0">
      <root>
        <mxCell id="0" />
        <mxCell id="1" parent="0" />
        <mxCell id="EfoZ_sSD2k4tRABN93A1-1" value="Pacientes" style="rounded=0;whiteSpace=wrap;html=1;" vertex="1" parent="1">
          <mxGeometry x="76" y="262" width="120" height="60" as="geometry" />
        </mxCell>
        <mxCell id="EfoZ_sSD2k4tRABN93A1-2" value="Medicos" style="rounded=0;whiteSpace=wrap;html=1;" vertex="1" parent="1">
          <mxGeometry x="596" y="262" width="120" height="60" as="geometry" />
        </mxCell>
        <mxCell id="EfoZ_sSD2k4tRABN93A1-3" value="Examenes" style="rounded=0;whiteSpace=wrap;html=1;" vertex="1" parent="1">
          <mxGeometry x="366" y="570" width="120" height="60" as="geometry" />
        </mxCell>
        <mxCell id="EfoZ_sSD2k4tRABN93A1-4" value="Examenes&lt;div&gt;X&lt;/div&gt;&lt;div&gt;Pacientes&lt;/div&gt;" style="rhombus;whiteSpace=wrap;html=1;" vertex="1" parent="1">
          <mxGeometry x="250" y="424" width="80" height="80" as="geometry" />
        </mxCell>
        <mxCell id="EfoZ_sSD2k4tRABN93A1-5" value="&lt;div&gt;Pacientes&lt;/div&gt;&lt;div&gt;X&lt;/div&gt;&lt;div&gt;Medico&lt;/div&gt;" style="rhombus;whiteSpace=wrap;html=1;" vertex="1" parent="1">
          <mxGeometry x="386" y="252" width="80" height="80" as="geometry" />
        </mxCell>
        <mxCell id="EfoZ_sSD2k4tRABN93A1-6" value="" style="endArrow=none;html=1;rounded=0;entryX=0;entryY=0.5;entryDx=0;entryDy=0;exitX=1;exitY=0.5;exitDx=0;exitDy=0;" edge="1" parent="1" source="EfoZ_sSD2k4tRABN93A1-1" target="EfoZ_sSD2k4tRABN93A1-5">
          <mxGeometry width="50" height="50" relative="1" as="geometry">
            <mxPoint x="386" y="462" as="sourcePoint" />
            <mxPoint x="436" y="412" as="targetPoint" />
          </mxGeometry>
        </mxCell>
        <mxCell id="EfoZ_sSD2k4tRABN93A1-7" value="" style="endArrow=none;html=1;rounded=0;entryX=0;entryY=0.5;entryDx=0;entryDy=0;exitX=1;exitY=0.5;exitDx=0;exitDy=0;" edge="1" parent="1" source="EfoZ_sSD2k4tRABN93A1-5" target="EfoZ_sSD2k4tRABN93A1-2">
          <mxGeometry width="50" height="50" relative="1" as="geometry">
            <mxPoint x="436" y="291.5" as="sourcePoint" />
            <mxPoint x="596" y="291.5" as="targetPoint" />
          </mxGeometry>
        </mxCell>
        <mxCell id="EfoZ_sSD2k4tRABN93A1-8" value="" style="endArrow=none;html=1;rounded=0;entryX=0.5;entryY=1;entryDx=0;entryDy=0;exitX=1;exitY=0;exitDx=0;exitDy=0;" edge="1" parent="1" source="EfoZ_sSD2k4tRABN93A1-35" target="EfoZ_sSD2k4tRABN93A1-2">
          <mxGeometry width="50" height="50" relative="1" as="geometry">
            <mxPoint x="590" y="430" as="sourcePoint" />
            <mxPoint x="386" y="410" as="targetPoint" />
          </mxGeometry>
        </mxCell>
        <mxCell id="EfoZ_sSD2k4tRABN93A1-9" value="" style="endArrow=none;html=1;rounded=0;entryX=0;entryY=0;entryDx=0;entryDy=0;exitX=1;exitY=1;exitDx=0;exitDy=0;" edge="1" parent="1" source="EfoZ_sSD2k4tRABN93A1-4" target="EfoZ_sSD2k4tRABN93A1-3">
          <mxGeometry width="50" height="50" relative="1" as="geometry">
            <mxPoint x="336" y="460" as="sourcePoint" />
            <mxPoint x="386" y="410" as="targetPoint" />
          </mxGeometry>
        </mxCell>
        <mxCell id="EfoZ_sSD2k4tRABN93A1-10" value="Consulta" style="ellipse;whiteSpace=wrap;html=1;" vertex="1" parent="1">
          <mxGeometry x="512" y="80" width="96" height="52" as="geometry" />
        </mxCell>
        <mxCell id="EfoZ_sSD2k4tRABN93A1-11" value="Mixto" style="ellipse;whiteSpace=wrap;html=1;" vertex="1" parent="1">
          <mxGeometry x="608" y="50" width="96" height="52" as="geometry" />
        </mxCell>
        <mxCell id="EfoZ_sSD2k4tRABN93A1-12" value="Examen" style="ellipse;whiteSpace=wrap;html=1;" vertex="1" parent="1">
          <mxGeometry x="710" y="80" width="96" height="52" as="geometry" />
        </mxCell>
        <mxCell id="EfoZ_sSD2k4tRABN93A1-13" value="&lt;u&gt;Matricula&lt;/u&gt;" style="ellipse;whiteSpace=wrap;html=1;" vertex="1" parent="1">
          <mxGeometry x="760" y="252" width="96" height="52" as="geometry" />
        </mxCell>
        <mxCell id="EfoZ_sSD2k4tRABN93A1-14" value="Fecha" style="ellipse;whiteSpace=wrap;html=1;" vertex="1" parent="1">
          <mxGeometry x="210" y="650" width="96" height="52" as="geometry" />
        </mxCell>
        <mxCell id="EfoZ_sSD2k4tRABN93A1-15" value="Descripcion" style="ellipse;whiteSpace=wrap;html=1;" vertex="1" parent="1">
          <mxGeometry x="378" y="680" width="96" height="52" as="geometry" />
        </mxCell>
        <mxCell id="EfoZ_sSD2k4tRABN93A1-16" value="&lt;u&gt;Nro_examen&lt;/u&gt;" style="ellipse;whiteSpace=wrap;html=1;" vertex="1" parent="1">
          <mxGeometry x="520" y="660" width="96" height="52" as="geometry" />
        </mxCell>
        <mxCell id="EfoZ_sSD2k4tRABN93A1-17" value="" style="endArrow=none;html=1;rounded=0;entryX=0;entryY=0.5;entryDx=0;entryDy=0;exitX=0.5;exitY=0;exitDx=0;exitDy=0;" edge="1" parent="1" source="EfoZ_sSD2k4tRABN93A1-14" target="EfoZ_sSD2k4tRABN93A1-3">
          <mxGeometry width="50" height="50" relative="1" as="geometry">
            <mxPoint x="390" y="460" as="sourcePoint" />
            <mxPoint x="440" y="410" as="targetPoint" />
          </mxGeometry>
        </mxCell>
        <mxCell id="EfoZ_sSD2k4tRABN93A1-18" value="" style="endArrow=none;html=1;rounded=0;entryX=0.5;entryY=0;entryDx=0;entryDy=0;exitX=1;exitY=0.5;exitDx=0;exitDy=0;" edge="1" parent="1" source="EfoZ_sSD2k4tRABN93A1-3" target="EfoZ_sSD2k4tRABN93A1-16">
          <mxGeometry width="50" height="50" relative="1" as="geometry">
            <mxPoint x="390" y="460" as="sourcePoint" />
            <mxPoint x="440" y="410" as="targetPoint" />
          </mxGeometry>
        </mxCell>
        <mxCell id="EfoZ_sSD2k4tRABN93A1-19" value="" style="endArrow=none;html=1;rounded=0;entryX=0.5;entryY=0;entryDx=0;entryDy=0;exitX=0.5;exitY=1;exitDx=0;exitDy=0;" edge="1" parent="1" source="EfoZ_sSD2k4tRABN93A1-3" target="EfoZ_sSD2k4tRABN93A1-15">
          <mxGeometry width="50" height="50" relative="1" as="geometry">
            <mxPoint x="390" y="460" as="sourcePoint" />
            <mxPoint x="440" y="410" as="targetPoint" />
          </mxGeometry>
        </mxCell>
        <mxCell id="EfoZ_sSD2k4tRABN93A1-20" value="" style="endArrow=none;html=1;rounded=0;entryX=1;entryY=1;entryDx=0;entryDy=0;exitX=0;exitY=0.75;exitDx=0;exitDy=0;" edge="1" parent="1" source="EfoZ_sSD2k4tRABN93A1-38" target="EfoZ_sSD2k4tRABN93A1-10">
          <mxGeometry width="50" height="50" relative="1" as="geometry">
            <mxPoint x="600" y="170" as="sourcePoint" />
            <mxPoint x="490" y="412" as="targetPoint" />
          </mxGeometry>
        </mxCell>
        <mxCell id="EfoZ_sSD2k4tRABN93A1-21" value="" style="endArrow=none;html=1;rounded=0;entryX=0;entryY=0.5;entryDx=0;entryDy=0;exitX=1;exitY=0.5;exitDx=0;exitDy=0;" edge="1" parent="1" source="EfoZ_sSD2k4tRABN93A1-2" target="EfoZ_sSD2k4tRABN93A1-13">
          <mxGeometry width="50" height="50" relative="1" as="geometry">
            <mxPoint x="440" y="462" as="sourcePoint" />
            <mxPoint x="490" y="412" as="targetPoint" />
          </mxGeometry>
        </mxCell>
        <mxCell id="EfoZ_sSD2k4tRABN93A1-22" value="" style="endArrow=none;html=1;rounded=0;entryX=0.5;entryY=1;entryDx=0;entryDy=0;exitX=0;exitY=0.5;exitDx=0;exitDy=0;" edge="1" parent="1" source="EfoZ_sSD2k4tRABN93A1-38" target="EfoZ_sSD2k4tRABN93A1-11">
          <mxGeometry width="50" height="50" relative="1" as="geometry">
            <mxPoint x="658" y="160" as="sourcePoint" />
            <mxPoint x="490" y="412" as="targetPoint" />
          </mxGeometry>
        </mxCell>
        <mxCell id="EfoZ_sSD2k4tRABN93A1-23" value="" style="endArrow=none;html=1;rounded=0;entryX=0;entryY=1;entryDx=0;entryDy=0;exitX=0;exitY=0.25;exitDx=0;exitDy=0;" edge="1" parent="1" source="EfoZ_sSD2k4tRABN93A1-38" target="EfoZ_sSD2k4tRABN93A1-12">
          <mxGeometry width="50" height="50" relative="1" as="geometry">
            <mxPoint x="690" y="170" as="sourcePoint" />
            <mxPoint x="490" y="412" as="targetPoint" />
          </mxGeometry>
        </mxCell>
        <mxCell id="EfoZ_sSD2k4tRABN93A1-24" value="Telefono" style="ellipse;whiteSpace=wrap;html=1;" vertex="1" parent="1">
          <mxGeometry x="10" y="160" width="96" height="52" as="geometry" />
        </mxCell>
        <mxCell id="EfoZ_sSD2k4tRABN93A1-25" value="&lt;u&gt;DNI&lt;/u&gt;" style="ellipse;whiteSpace=wrap;html=1;" vertex="1" parent="1">
          <mxGeometry x="190" y="162" width="96" height="52" as="geometry" />
        </mxCell>
        <mxCell id="EfoZ_sSD2k4tRABN93A1-26" value="Nombre" style="ellipse;whiteSpace=wrap;html=1;" vertex="1" parent="1">
          <mxGeometry x="50" y="372" width="96" height="52" as="geometry" />
        </mxCell>
        <mxCell id="EfoZ_sSD2k4tRABN93A1-27" value="Apellido" style="ellipse;whiteSpace=wrap;html=1;" vertex="1" parent="1">
          <mxGeometry x="100" y="110" width="96" height="52" as="geometry" />
        </mxCell>
        <mxCell id="EfoZ_sSD2k4tRABN93A1-28" value="" style="endArrow=none;html=1;rounded=0;entryX=0.5;entryY=0;entryDx=0;entryDy=0;exitX=0.5;exitY=1;exitDx=0;exitDy=0;" edge="1" parent="1" source="EfoZ_sSD2k4tRABN93A1-27" target="EfoZ_sSD2k4tRABN93A1-1">
          <mxGeometry width="50" height="50" relative="1" as="geometry">
            <mxPoint x="430" y="462" as="sourcePoint" />
            <mxPoint x="480" y="412" as="targetPoint" />
          </mxGeometry>
        </mxCell>
        <mxCell id="EfoZ_sSD2k4tRABN93A1-29" value="" style="endArrow=none;html=1;rounded=0;entryX=0.25;entryY=1;entryDx=0;entryDy=0;exitX=0.5;exitY=0;exitDx=0;exitDy=0;" edge="1" parent="1" source="EfoZ_sSD2k4tRABN93A1-26" target="EfoZ_sSD2k4tRABN93A1-1">
          <mxGeometry width="50" height="50" relative="1" as="geometry">
            <mxPoint x="430" y="462" as="sourcePoint" />
            <mxPoint x="480" y="412" as="targetPoint" />
          </mxGeometry>
        </mxCell>
        <mxCell id="EfoZ_sSD2k4tRABN93A1-30" value="" style="endArrow=none;html=1;rounded=0;entryX=0.5;entryY=1;entryDx=0;entryDy=0;exitX=0.25;exitY=0;exitDx=0;exitDy=0;" edge="1" parent="1" source="EfoZ_sSD2k4tRABN93A1-1" target="EfoZ_sSD2k4tRABN93A1-24">
          <mxGeometry width="50" height="50" relative="1" as="geometry">
            <mxPoint x="430" y="462" as="sourcePoint" />
            <mxPoint x="480" y="412" as="targetPoint" />
          </mxGeometry>
        </mxCell>
        <mxCell id="EfoZ_sSD2k4tRABN93A1-31" value="" style="endArrow=none;html=1;rounded=0;entryX=0;entryY=1;entryDx=0;entryDy=0;exitX=0.75;exitY=0;exitDx=0;exitDy=0;" edge="1" parent="1" source="EfoZ_sSD2k4tRABN93A1-1" target="EfoZ_sSD2k4tRABN93A1-25">
          <mxGeometry width="50" height="50" relative="1" as="geometry">
            <mxPoint x="430" y="462" as="sourcePoint" />
            <mxPoint x="480" y="412" as="targetPoint" />
          </mxGeometry>
        </mxCell>
        <mxCell id="EfoZ_sSD2k4tRABN93A1-32" value="(1,N)" style="text;strokeColor=none;align=center;fillColor=none;html=1;verticalAlign=middle;whiteSpace=wrap;rounded=0;" vertex="1" parent="1">
          <mxGeometry x="396" y="222" width="60" height="30" as="geometry" />
        </mxCell>
        <mxCell id="EfoZ_sSD2k4tRABN93A1-33" value="(1,N)" style="text;strokeColor=none;align=center;fillColor=none;html=1;verticalAlign=middle;whiteSpace=wrap;rounded=0;" vertex="1" parent="1">
          <mxGeometry x="608" y="449" width="60" height="30" as="geometry" />
        </mxCell>
        <mxCell id="EfoZ_sSD2k4tRABN93A1-34" value="" style="endArrow=none;html=1;rounded=0;entryX=1;entryY=1;entryDx=0;entryDy=0;exitX=0;exitY=0;exitDx=0;exitDy=0;" edge="1" parent="1" source="EfoZ_sSD2k4tRABN93A1-4" target="EfoZ_sSD2k4tRABN93A1-1">
          <mxGeometry width="50" height="50" relative="1" as="geometry">
            <mxPoint x="390" y="460" as="sourcePoint" />
            <mxPoint x="440" y="410" as="targetPoint" />
          </mxGeometry>
        </mxCell>
        <mxCell id="EfoZ_sSD2k4tRABN93A1-35" value="Examenes&lt;div&gt;X&lt;/div&gt;&lt;div&gt;Medicos&lt;/div&gt;" style="rhombus;whiteSpace=wrap;html=1;" vertex="1" parent="1">
          <mxGeometry x="528" y="420" width="80" height="80" as="geometry" />
        </mxCell>
        <mxCell id="EfoZ_sSD2k4tRABN93A1-37" value="" style="endArrow=none;html=1;rounded=0;entryX=0;entryY=1;entryDx=0;entryDy=0;exitX=1;exitY=0;exitDx=0;exitDy=0;" edge="1" parent="1" source="EfoZ_sSD2k4tRABN93A1-3" target="EfoZ_sSD2k4tRABN93A1-35">
          <mxGeometry width="50" height="50" relative="1" as="geometry">
            <mxPoint x="390" y="460" as="sourcePoint" />
            <mxPoint x="440" y="410" as="targetPoint" />
          </mxGeometry>
        </mxCell>
        <mxCell id="EfoZ_sSD2k4tRABN93A1-38" value="" style="triangle;whiteSpace=wrap;html=1;rotation=90;" vertex="1" parent="1">
          <mxGeometry x="641" y="180" width="34" height="42" as="geometry" />
        </mxCell>
        <mxCell id="EfoZ_sSD2k4tRABN93A1-40" value="" style="endArrow=none;html=1;rounded=0;entryX=1;entryY=0.5;entryDx=0;entryDy=0;exitX=0.5;exitY=0;exitDx=0;exitDy=0;" edge="1" parent="1" source="EfoZ_sSD2k4tRABN93A1-2" target="EfoZ_sSD2k4tRABN93A1-38">
          <mxGeometry width="50" height="50" relative="1" as="geometry">
            <mxPoint x="390" y="460" as="sourcePoint" />
            <mxPoint x="440" y="410" as="targetPoint" />
          </mxGeometry>
        </mxCell>
        <mxCell id="EfoZ_sSD2k4tRABN93A1-41" value="(1,N)" style="text;strokeColor=none;align=center;fillColor=none;html=1;verticalAlign=middle;whiteSpace=wrap;rounded=0;" vertex="1" parent="1">
          <mxGeometry x="180" y="449" width="60" height="30" as="geometry" />
        </mxCell>
      </root>
    </mxGraphModel>
  </diagram>
</mxfile>
